<svg width="61" height="77" viewBox="0 0 61 77" fill="none" xmlns="http://www.w3.org/2000/svg">
<path d="M55.1351 24.7991C52.0854 32.3959 43.4548 36.082 35.858 33.0323C28.2612 29.9826 24.575 21.352 27.6247 13.7552C30.6744 6.15841 39.3051 2.47225 46.9018 5.52194C54.4986 8.57162 58.1848 17.2023 55.1351 24.7991Z" fill="#EEC80C"/>
<path d="M55.1351 24.7991C52.0854 32.3959 43.4548 36.082 35.858 33.0323C28.2612 29.9826 24.575 21.352 27.6247 13.7552C30.6744 6.15841 39.3051 2.47225 46.9018 5.52194C54.4986 8.57162 58.1848 17.2023 55.1351 24.7991Z" fill="url(#paint0_linear_25_65)" fill-opacity="0.6"/>
<path fill-rule="evenodd" clip-rule="evenodd" d="M4.64272 50.3231H31.9259C38.5162 50.3231 43.8587 44.9806 43.8587 38.3903C43.8587 31.8887 38.659 26.6016 32.1913 26.4604C32.5253 25.3613 32.7049 24.1949 32.7049 22.9866C32.7049 16.3963 27.3624 11.0538 20.7721 11.0538L4.64272 11.0538L4.64272 50.3231ZM20.7721 26.3992H13.1629L13.1629 19.574L20.7721 19.574C22.6569 19.574 24.1847 21.1019 24.1847 22.9866C24.1847 24.8713 22.6569 26.3992 20.7721 26.3992ZM31.9259 41.8029L13.1629 41.8029L13.1629 34.9777H31.9259C33.8107 34.9777 35.3386 36.5056 35.3386 38.3903C35.3386 40.275 33.8107 41.8029 31.9259 41.8029Z" stroke="white" stroke-width="2.00979"/>
<path d="M3.65796 72.4045V61.8532H7.89358C8.98892 61.8532 9.82298 62.1094 10.3958 62.6219C10.9786 63.1243 11.27 63.7725 11.27 64.5664C11.27 65.2296 11.0891 65.7622 10.7274 66.1641C10.3757 66.5561 9.94357 66.8224 9.43107 66.963C10.034 67.0836 10.5314 67.3851 10.9233 67.8674C11.3152 68.3397 11.5112 68.8924 11.5112 69.5255C11.5112 70.3596 11.2097 71.0479 10.6068 71.5906C10.0039 72.1332 9.1497 72.4045 8.04432 72.4045H3.65796ZM5.58735 66.2847H7.60719C8.14983 66.2847 8.56686 66.1591 8.85828 65.9079C9.1497 65.6567 9.29541 65.2999 9.29541 64.8377C9.29541 64.3955 9.1497 64.0488 8.85828 63.7976C8.57691 63.5364 8.14983 63.4057 7.57704 63.4057H5.58735V66.2847ZM5.58735 70.8369H7.74285C8.31564 70.8369 8.75779 70.7063 9.06931 70.445C9.39088 70.1737 9.55166 69.7968 9.55166 69.3145C9.55166 68.8221 9.38585 68.4352 9.05424 68.1538C8.72262 67.8725 8.27544 67.7318 7.7127 67.7318H5.58735V70.8369ZM15.0966 72.5854C14.4534 72.5854 13.9259 72.4849 13.5138 72.284C13.1018 72.0729 12.7953 71.7966 12.5944 71.4549C12.3934 71.1133 12.2929 70.7364 12.2929 70.3244C12.2929 69.631 12.5642 69.0683 13.1069 68.6362C13.6495 68.2041 14.4635 67.988 15.5488 67.988H17.448V67.8072C17.448 67.2947 17.3023 66.9178 17.0109 66.6766C16.7195 66.4355 16.3577 66.3149 15.9256 66.3149C15.5337 66.3149 15.192 66.4103 14.9006 66.6013C14.6092 66.7822 14.4283 67.0535 14.358 67.4152H12.4738C12.524 66.8726 12.7049 66.4003 13.0164 65.9983C13.338 65.5964 13.75 65.2899 14.2524 65.0789C14.7549 64.8578 15.3176 64.7472 15.9407 64.7472C17.0059 64.7472 17.8449 65.0135 18.4579 65.5461C19.0709 66.0787 19.3774 66.8324 19.3774 67.8072V72.4045H17.7344L17.5535 71.1987C17.3324 71.6006 17.0209 71.9322 16.619 72.1935C16.2271 72.4548 15.7196 72.5854 15.0966 72.5854ZM15.5337 71.0781C16.0864 71.0781 16.5135 70.8972 16.8149 70.5354C17.1264 70.1737 17.3224 69.7265 17.4028 69.1939H15.7598C15.2473 69.1939 14.8805 69.2894 14.6594 69.4803C14.4383 69.6612 14.3278 69.8873 14.3278 70.1586C14.3278 70.45 14.4383 70.6761 14.6594 70.8369C14.8805 70.9977 15.1719 71.0781 15.5337 71.0781ZM23.8438 72.4045C23.06 72.4045 22.432 72.2136 21.9597 71.8318C21.4874 71.4499 21.2512 70.7716 21.2512 69.7968V66.541H19.97V64.9281H21.2512L21.4773 62.9234H23.1806V64.9281H25.2004V66.541H23.1806V69.8119C23.1806 70.1737 23.256 70.4249 23.4067 70.5656C23.5675 70.6962 23.8388 70.7615 24.2207 70.7615H25.1552V72.4045H23.8438ZM28.8316 72.5854C28.1885 72.5854 27.6609 72.4849 27.2489 72.284C26.8369 72.0729 26.5304 71.7966 26.3294 71.4549C26.1284 71.1133 26.028 70.7364 26.028 70.3244C26.028 69.631 26.2993 69.0683 26.8419 68.6362C27.3846 68.2041 28.1985 67.988 29.2838 67.988H31.1831V67.8072C31.1831 67.2947 31.0374 66.9178 30.7459 66.6766C30.4545 66.4355 30.0928 66.3149 29.6606 66.3149C29.2687 66.3149 28.9271 66.4103 28.6357 66.6013C28.3442 66.7822 28.1634 67.0535 28.093 67.4152H26.2088C26.2591 66.8726 26.44 66.4003 26.7515 65.9983C27.073 65.5964 27.4851 65.2899 27.9875 65.0789C28.4899 64.8578 29.0527 64.7472 29.6757 64.7472C30.7409 64.7472 31.58 65.0135 32.193 65.5461C32.806 66.0787 33.1125 66.8324 33.1125 67.8072V72.4045H31.4695L31.2886 71.1987C31.0675 71.6006 30.756 71.9322 30.354 72.1935C29.9621 72.4548 29.4546 72.5854 28.8316 72.5854ZM29.2687 71.0781C29.8214 71.0781 30.2485 70.8972 30.55 70.5354C30.8615 70.1737 31.0574 69.7265 31.1378 69.1939H29.4948C28.9823 69.1939 28.6156 69.2894 28.3945 69.4803C28.1734 69.6612 28.0629 69.8873 28.0629 70.1586C28.0629 70.45 28.1734 70.6761 28.3945 70.8369C28.6156 70.9977 28.907 71.0781 29.2687 71.0781ZM38.7823 72.5854C38.2196 72.5854 37.7272 72.4799 37.3051 72.2689C36.883 72.0579 36.5414 71.7614 36.2801 71.3795L36.0691 72.4045H34.3507V61.5517H36.2801V65.9983C36.5213 65.6667 36.8378 65.3753 37.2297 65.1241C37.6317 64.8729 38.1492 64.7472 38.7823 64.7472C39.4857 64.7472 40.1138 64.9181 40.6665 65.2597C41.2192 65.6014 41.6563 66.0687 41.9779 66.6616C42.2994 67.2545 42.4602 67.9277 42.4602 68.6814C42.4602 69.4351 42.2994 70.1084 41.9779 70.7012C41.6563 71.2841 41.2192 71.7463 40.6665 72.088C40.1138 72.4196 39.4857 72.5854 38.7823 72.5854ZM38.3753 70.8972C38.9883 70.8972 39.4958 70.6912 39.8977 70.2792C40.2997 69.8672 40.5007 69.3346 40.5007 68.6814C40.5007 68.0282 40.2997 67.4906 39.8977 67.0686C39.4958 66.6465 38.9883 66.4355 38.3753 66.4355C37.7523 66.4355 37.2398 66.6465 36.8378 67.0686C36.4459 67.4806 36.25 68.0132 36.25 68.6663C36.25 69.3195 36.4459 69.8571 36.8378 70.2792C37.2398 70.6912 37.7523 70.8972 38.3753 70.8972ZM44.6209 63.7675C44.2692 63.7675 43.9778 63.662 43.7466 63.4509C43.5256 63.2399 43.415 62.9736 43.415 62.652C43.415 62.3305 43.5256 62.0692 43.7466 61.8682C43.9778 61.6572 44.2692 61.5517 44.6209 61.5517C44.9726 61.5517 45.259 61.6572 45.4801 61.8682C45.7112 62.0692 45.8268 62.3305 45.8268 62.652C45.8268 62.9736 45.7112 63.2399 45.4801 63.4509C45.259 63.662 44.9726 63.7675 44.6209 63.7675ZM43.6562 72.4045V64.9281H45.5856V72.4045H43.6562ZM50.3277 72.4045C49.5439 72.4045 48.9158 72.2136 48.4435 71.8318C47.9712 71.4499 47.7351 70.7716 47.7351 69.7968V66.541H46.4538V64.9281H47.7351L47.9612 62.9234H49.6645V64.9281H51.6843V66.541H49.6645V69.8119C49.6645 70.1737 49.7398 70.4249 49.8906 70.5656C50.0514 70.6962 50.3227 70.7615 50.7045 70.7615H51.6391V72.4045H50.3277Z" fill="white"/>
<circle cx="4.57992" cy="50.3075" r="3.57993" fill="#0B8AFF" stroke="white" stroke-width="2.00979"/>
<defs>
<linearGradient id="paint0_linear_25_65" x1="52.0821" y1="6.34292" x2="15.5759" y2="26.4741" gradientUnits="userSpaceOnUse">
<stop stop-color="white"/>
<stop offset="1" stop-color="white" stop-opacity="0"/>
</linearGradient>
</defs>
</svg>
